<?xml version="1.0" encoding="utf-8"?>
<!-- Generator: Adobe Illustrator 26.0.1, SVG Export Plug-In . SVG Version: 6.00 Build 0)  -->
<svg version="1.1" id="Слой_1" xmlns:xodm="http://www.corel.com/coreldraw/odm/2003"
	 xmlns="http://www.w3.org/2000/svg" xmlns:xlink="http://www.w3.org/1999/xlink" x="0px" y="0px" viewBox="0 0 194 50"
	 style="enable-background:new 0 0 194 50;" xml:space="preserve">
<style type="text/css">
	.st0{fill:#FFFFFF;}
	.st1{fill:#9900CC;}
	.st2{fill:#898291;}
</style>
<g id="Слой_x0020_1">
	<path class="st0" d="M79.5,21.1c2.9,0,4.1-2,4.1-4.6V13c0-2.7-1.2-4.5-4.1-4.5c-2.8,0-4.1,1.8-4.1,4.5v3.5
		C75.3,19.2,76.6,21.1,79.5,21.1z M80,29.1c-0.8,0.1-1.6,0.3-2.4,0.3c-7.4,0.3-10.9-5.9-10.9-12.5v-3.6C66.7,5.1,71.1,0,79.5,0
		c8.3,0,12.8,5.1,12.8,13.3v3.2c0,4.1-1.2,7.6-2.6,11.4l-8.4,21.4h-9.3C71.9,49.4,80,29.1,80,29.1z"/>
	<path class="st0" d="M35.6,41.4l13.3-19.6c1.8-2.9,3.4-6,3.4-9.5c0-2.5-1.4-3.8-3.9-3.8c-3.1,0-4.1,2.4-4.3,5.1v0.9h-8.9v-0.9
		C35.4,5.4,39.6,0,48.2,0c8.1,0,13,3.9,13,12.2c0,4.9-2,9.5-4.6,13.7l-9.9,14.9h14.6v8.5H35.6V41.4z"/>
	<path class="st0" d="M0,0.5c5.4,0,10.8,0,16.3,0C23.8,0.5,29,4.3,29,12.2v2.6c0,5.3-3.3,8.5-8.3,9.4c5.6,0.7,9,4.4,9,10.1v3.4
		c0,7.9-5.1,11.8-12.7,11.8c-5.6,0-11.3,0-16.9,0C0,49.4,0,0.5,0,0.5z M8.8,8.9v11.2h6.9c2.9,0,4.5-1.7,4.5-4.6v-2.6
		c0-2.8-1.9-4-4.5-4C15.7,8.9,8.8,8.9,8.8,8.9z M8.8,28.4V41h7.1c2.9,0,4.9-1.4,4.9-4.5v-3.3c0-3.1-1.9-4.8-5-4.8H8.8z"/>
	<path class="st1" d="M194,3.7v3.3h-7.1v4.5h6.1v3.3h-6.1v4.4h7.1v3.3c-3.5,0-7,0-10.5,0V3.7C187,3.7,190.5,3.7,194,3.7z"/>
	<polygon class="st1" points="172.7,11.5 174.6,11.5 177.6,3.7 181.3,3.7 177.4,12.9 182.1,22.4 178.2,22.4 174.5,14.7 172.7,14.7 
		172.7,22.4 169.3,22.4 169.3,3.7 172.7,3.7 	"/>
	<path class="st1" d="M160.7,19.2c1.5,0,2.4-1,2.4-2.5V9.3c0-1.5-0.9-2.5-2.4-2.5c-1.5,0-2.4,1-2.4,2.5v7.5
		C158.3,18.3,159.2,19.2,160.7,19.2z M160.7,22.6c-3.5,0-5.8-2.1-5.8-5.7V9.1c0-3.6,2.3-5.7,5.8-5.7c3.5,0,5.8,2.1,5.8,5.7V17
		C166.5,20.5,164.2,22.6,160.7,22.6z"/>
	<path class="st1" d="M145,16.3h3.5l-1.8-6.4C146.8,9.9,145,16.3,145,16.3z M149.4,19.5h-5.3l-0.8,3h-3.5l5.8-18.8h2.2l5.8,18.8
		h-3.5C150.2,22.4,149.4,19.5,149.4,19.5z"/>
	<path class="st1" d="M131.6,11.9h2.8c1.1,0,1.7-0.9,1.7-1.9V8.9c0-1.1-0.5-2-1.7-2h-2.8C131.6,6.9,131.6,11.9,131.6,11.9z
		 M134.4,3.7c3.1,0,5.2,1.8,5.2,5v1.6c0,3.1-2.1,4.9-5.2,4.9h-2.8v7.3h-3.4V3.7C130.3,3.7,132.4,3.7,134.4,3.7z"/>
	<path class="st1" d="M117.6,16.3h3.5l-1.8-6.4C119.4,9.9,117.6,16.3,117.6,16.3z M122,19.5h-5.3l-0.8,3h-3.5l5.8-18.8h2.2l5.8,18.8
		h-3.5L122,19.5L122,19.5z"/>
	<polygon class="st1" points="103,11.5 104.8,11.5 107.9,3.7 111.5,3.7 107.7,12.9 112.3,22.4 108.4,22.4 104.8,14.7 103,14.7 
		103,22.4 99.6,22.4 99.6,3.7 103,3.7 	"/>
	<g>
		<path class="st2" d="M99.6,44.9V33.7h4.9c2.1,0,3.2,0.9,3.2,2.7c0,0.6-0.2,1.2-0.5,1.6c-0.3,0.5-0.8,0.8-1.3,0.9
			c0.7,0.1,1.2,0.4,1.6,0.9c0.4,0.5,0.5,1,0.5,1.7c0,1-0.3,1.8-0.9,2.4c-0.6,0.6-1.4,0.9-2.3,0.9H99.6z M102.2,35.7v2.4h1.5
			c0.9,0,1.3-0.4,1.3-1.3c0-0.8-0.4-1.2-1.2-1.2H102.2z M102.2,40.1v2.6h1.7c0.9,0,1.4-0.5,1.4-1.4c0-0.8-0.5-1.3-1.4-1.3H102.2z"/>
		<path class="st2" d="M126.7,44.9v-9.5c0-0.9,0-2,0.1-3.3h-0.1c-0.2,1-0.3,1.7-0.4,2l-3.1,10.8h-2.1l-3.2-10.7
			c-0.1-0.3-0.2-1-0.4-2.1h-0.1c0.1,1.3,0.1,2.6,0.1,3.9v8.8h-2.4V29.2h3.9l2.7,9.4c0.2,0.8,0.4,1.5,0.5,2.2h0.1
			c0.2-0.9,0.3-1.6,0.5-2.2l2.7-9.4h3.8v15.6H126.7z"/>
		<path class="st2" d="M132.3,34.4c0.4-0.3,1-0.5,1.6-0.7c0.7-0.2,1.3-0.3,1.7-0.3c2.5,0,3.8,1.6,3.8,4.7v6.7h-2.5v-1.6h0
			c-0.6,1.3-1.5,1.9-2.7,1.9c-0.9,0-1.5-0.3-2-0.9c-0.5-0.6-0.8-1.4-0.8-2.5c0-2.1,1-3.4,3.1-3.7l2.5-0.4c0-1.3-0.5-1.9-1.6-1.9
			c-1.1,0-2.1,0.4-3,1.2V34.4z M135.2,39.8c-1,0.2-1.4,0.7-1.4,1.6c0,0.4,0.1,0.8,0.3,1c0.2,0.3,0.5,0.4,0.9,0.4
			c0.5,0,1-0.2,1.3-0.7c0.3-0.5,0.5-1.1,0.5-1.8v-0.8L135.2,39.8z"/>
		<path class="st2" d="M144.3,43.5V50h-2.6V33.7h2.6v1.7h0c0.7-1.3,1.7-2,2.9-2c1.1,0,2,0.5,2.7,1.5c0.6,1,1,2.3,1,4.1
			c0,1.9-0.4,3.4-1.1,4.5c-0.7,1.1-1.7,1.7-2.9,1.7C145.7,45.1,144.9,44.6,144.3,43.5L144.3,43.5z M144.3,39.9
			c0,0.8,0.2,1.4,0.5,1.9c0.3,0.5,0.8,0.8,1.4,0.8c0.7,0,1.2-0.3,1.5-0.9c0.4-0.6,0.6-1.5,0.6-2.7c0-2-0.6-3.1-1.9-3.1
			c-0.6,0-1.1,0.3-1.5,0.8c-0.4,0.6-0.6,1.3-0.6,2.2V39.9z"/>
		<path class="st2" d="M152.8,44.9V33.7h2.6v3.9h2.4c1,0,1.8,0.3,2.4,0.9c0.6,0.6,0.8,1.5,0.8,2.6c0,1.1-0.3,2-0.8,2.7
			c-0.6,0.7-1.3,1-2.3,1H152.8z M155.4,39.7v3h1.4c1,0,1.4-0.5,1.4-1.5c0-1-0.5-1.5-1.4-1.5H155.4z"/>
		<path class="st2" d="M171.5,44.9h-2.4v-7.5c-0.2,0.6-0.5,1.1-0.7,1.6l-3.2,5.9h-2.5V33.7h2.4V41c0.2-0.5,0.4-1,0.6-1.3l3.2-5.9
			h2.6V44.9z"/>
		<path class="st2" d="M182.5,44.9h-2.6v-4.7h-3.3v4.7h-2.6V33.7h2.6v4.2h3.3v-4.2h2.6V44.9z"/>
		<path class="st2" d="M184.4,39.3c0-1.8,0.4-3.3,1.3-4.3s2.1-1.6,3.6-1.6c1.4,0,2.6,0.5,3.5,1.5c0.9,1,1.3,2.4,1.3,4.2
			c0,1.8-0.4,3.3-1.3,4.4s-2.1,1.6-3.6,1.6c-1.5,0-2.6-0.5-3.5-1.6C184.8,42.5,184.4,41.1,184.4,39.3z M187,39.3
			c0,2.2,0.7,3.3,2.2,3.3c1.4,0,2.1-1.1,2.1-3.4c0-2.2-0.7-3.3-2.1-3.3c-0.7,0-1.2,0.3-1.6,0.9C187.2,37.4,187,38.2,187,39.3z"/>
	</g>
</g>
</svg>
