<?xml version="1.0" encoding="UTF-8"?>
<!DOCTYPE svg PUBLIC "-//W3C//DTD SVG 1.1//EN" "http://www.w3.org/Graphics/SVG/1.1/DTD/svg11.dtd">
<!-- Creator: CorelDRAW -->
<svg xmlns="http://www.w3.org/2000/svg" xml:space="preserve" width="25px" height="25px" version="1.1" style="shape-rendering:geometricPrecision; text-rendering:geometricPrecision; image-rendering:optimizeQuality; fill-rule:evenodd; clip-rule:evenodd"
viewBox="0 0 3.853 3.853"
 xmlns:xlink="http://www.w3.org/1999/xlink"
 xmlns:xodm="http://www.corel.com/coreldraw/odm/2003">
 <defs>
  <style type="text/css">
   <![CDATA[
    .fil0 {fill:#323232}
    .fil1 {fill:white}
   ]]>
  </style>
 </defs>
 <g id="itPlagg_x0020_1">
  <metadata id="CorelCorpID_0Corel-Layer"/>
  <path class="fil0" d="M1.011 0.075c0.251,-0.056 0.554,-0.075 0.915,-0.075 0.362,0 0.665,0.019 0.915,0.075 0.253,0.056 0.463,0.152 0.624,0.313 0.161,0.161 0.257,0.371 0.313,0.623 0.056,0.251 0.075,0.554 0.075,0.915 0,0.362 -0.019,0.665 -0.075,0.915 -0.056,0.253 -0.152,0.463 -0.313,0.624 -0.161,0.161 -0.371,0.257 -0.624,0.313 -0.25,0.056 -0.553,0.075 -0.915,0.075 -0.361,0 -0.664,-0.019 -0.915,-0.075 -0.252,-0.056 -0.462,-0.152 -0.623,-0.313 -0.161,-0.161 -0.257,-0.371 -0.313,-0.624 -0.056,-0.25 -0.075,-0.553 -0.075,-0.915 0,-0.361 0.019,-0.664 0.075,-0.915 0.056,-0.252 0.152,-0.462 0.313,-0.623 0.161,-0.161 0.371,-0.257 0.623,-0.313z"/>
  <path class="fil1" d="M2.641 1.405c0.075,0.075 0.075,0.197 0,0.272l-0.71 0.71c-0.109,0.109 -0.286,0.109 -0.395,0l-0.324 -0.324c-0.075,-0.076 -0.075,-0.198 0,-0.273 0.076,-0.075 0.197,-0.075 0.273,0l0.249 0.249 0.634 -0.634c0.075,-0.075 0.197,-0.075 0.273,0z"/>
 </g>
</svg>
