<?xml version="1.0" encoding="UTF-8"?>
<!DOCTYPE svg PUBLIC "-//W3C//DTD SVG 1.1//EN" "http://www.w3.org/Graphics/SVG/1.1/DTD/svg11.dtd">
<!-- Creator: CorelDRAW -->
<svg xmlns="http://www.w3.org/2000/svg" xml:space="preserve" width="100px" height="100px" version="1.1" style="shape-rendering:geometricPrecision; text-rendering:geometricPrecision; image-rendering:optimizeQuality; fill-rule:evenodd; clip-rule:evenodd"
viewBox="0 0 27.218 27.218"
 xmlns:xlink="http://www.w3.org/1999/xlink"
 xmlns:xodm="http://www.corel.com/coreldraw/odm/2003">
 <defs>
  <style type="text/css">
   <![CDATA[
    .fil0 {fill:red;fill-rule:nonzero}
    .fil1 {fill:white;fill-rule:nonzero}
   ]]>
  </style>
 </defs>
 <g id="Слой_x0020_1">
  <metadata id="CorelCorpID_0Corel-Layer"/>
  <circle class="fil0" cx="13.609" cy="13.609" r="13.609"/>
  <path class="fil1" d="M10.623 5.485c0.026,0.769 -0.537,1.383 -1.432,1.383 -0.006,0 -0.012,0 -0.017,0 -0.74,0 -1.339,-0.6 -1.339,-1.339 0,-0.015 0,-0.029 0,-0.044 0,-0.009 0,-0.019 0,-0.029 0,-0.757 0.614,-1.372 1.372,-1.372 0.009,0 0.02,0 0.029,0.001 0.85,-0.006 1.387,0.608 1.387,1.4zm-2.506 15.859l0 -12.374 2.25 0 0 12.374 -2.25 0z"/>
  <path class="fil1" d="M16.814 5.41l0 3.554 3.218 0 0 1.71 -3.218 0 0 6.677c0,1.535 0.434,2.404 1.688,2.404 0.022,0 0.046,0.001 0.069,0.001 0.416,0 0.832,-0.052 1.235,-0.153l0.103 1.688c-0.435,0.178 -1.126,0.307 -1.995,0.307 -1.051,0 -1.894,-0.333 -2.431,-0.947 -0.64,-0.666 -0.87,-1.765 -0.87,-3.223l0 -6.754 -1.918 0 0 -1.71 1.918 0 0 -2.966 2.201 -0.588z"/>
 </g>
</svg>
