<?xml version="1.0" encoding="UTF-8"?>
<!DOCTYPE svg PUBLIC "-//W3C//DTD SVG 1.1//EN" "http://www.w3.org/Graphics/SVG/1.1/DTD/svg11.dtd">
<!-- Creator: CorelDRAW -->
<svg xmlns="http://www.w3.org/2000/svg" xml:space="preserve" width="25px" height="25px" version="1.1" style="shape-rendering:geometricPrecision; text-rendering:geometricPrecision; image-rendering:optimizeQuality; fill-rule:evenodd; clip-rule:evenodd"
viewBox="0 0 2.63 2.63"
 xmlns:xlink="http://www.w3.org/1999/xlink"
 xmlns:xodm="http://www.corel.com/coreldraw/odm/2003">
 <defs>
  <style type="text/css">
   <![CDATA[
    .str0 {stroke:black;stroke-width:0.005;stroke-miterlimit:22.9256}
    .fil0 {fill:#323232}
    .fil1 {fill:white}
   ]]>
  </style>
 </defs>
 <g id="itPlagg_x0020_1">
  <metadata id="CorelCorpID_0Corel-Layer"/>
  <path class="fil0" d="M0.69 0.051c0.171,-0.038 0.378,-0.051 0.625,-0.051 0.247,0 0.454,0.013 0.625,0.051 0.172,0.038 0.315,0.104 0.426,0.214 0.11,0.11 0.175,0.253 0.213,0.425 0.038,0.171 0.051,0.378 0.051,0.625 0,0.247 -0.013,0.454 -0.051,0.625 -0.038,0.172 -0.103,0.315 -0.213,0.426 -0.111,0.11 -0.254,0.175 -0.426,0.213 -0.171,0.038 -0.378,0.051 -0.625,0.051 -0.247,0 -0.454,-0.013 -0.625,-0.051 -0.172,-0.038 -0.315,-0.103 -0.425,-0.213 -0.11,-0.111 -0.176,-0.254 -0.214,-0.426 -0.038,-0.171 -0.051,-0.378 -0.051,-0.625 0,-0.247 0.013,-0.454 0.051,-0.625 0.038,-0.172 0.104,-0.315 0.214,-0.425 0.11,-0.11 0.253,-0.176 0.425,-0.214z"/>
  <path class="fil1 str0" d="M0.824 0.824l0 0c0.051,-0.051 0.135,-0.051 0.186,0l0.305 0.305 0.305 -0.305c0.052,-0.051 0.135,-0.051 0.186,0l0 0c0.052,0.051 0.052,0.135 0,0.186l-0.305 0.305 0.305 0.305c0.052,0.052 0.052,0.135 0,0.186l0 0c-0.051,0.052 -0.134,0.052 -0.186,0l-0.305 -0.305 -0.305 0.305c-0.051,0.052 -0.135,0.052 -0.186,0l0 0c-0.051,-0.051 -0.051,-0.134 0,-0.186l0.305 -0.305 -0.305 -0.305c-0.051,-0.051 -0.051,-0.135 0,-0.186z"/>
 </g>
</svg>
