<?xml version="1.0" encoding="UTF-8"?>
<!DOCTYPE svg PUBLIC "-//W3C//DTD SVG 1.1//EN" "http://www.w3.org/Graphics/SVG/1.1/DTD/svg11.dtd">
<!-- Creator: CorelDRAW -->
<svg xmlns="http://www.w3.org/2000/svg" xml:space="preserve" width="100px" height="100px" version="1.1" style="shape-rendering:geometricPrecision; text-rendering:geometricPrecision; image-rendering:optimizeQuality; fill-rule:evenodd; clip-rule:evenodd"
viewBox="0 0 21.471 21.471"
 xmlns:xlink="http://www.w3.org/1999/xlink"
 xmlns:xodm="http://www.corel.com/coreldraw/odm/2003">
 <defs>
  <style type="text/css">
   <![CDATA[
    .fil2 {fill:none}
    .fil0 {fill:#E6454A}
    .fil1 {fill:#FBDC54}
   ]]>
  </style>
 </defs>
 <g id="Слой_x0020_1">
  <metadata id="CorelCorpID_0Corel-Layer"/>
  <g id="_1642472536848">
   <path class="fil0" d="M0.49 18.206l2.581 0 2.372 -5.582 1.507 0 0 5.582c0.691,0 1.382,0 2.073,0 0,-4.623 0,-10.315 0,-14.938 -1.778,-0.001 -2.049,-0.005 -3.827,0 -2.157,0.007 -3.634,1.354 -4.101,3.401 -0.414,1.817 0.07,4.022 1.614,5.182l0.511 0.384 -2.73 5.971zm4.704 -7.644c-1.427,0 -2.191,-1.319 -2.207,-2.606 -0.018,-1.327 0.747,-2.626 2.196,-2.648 0.847,-0.013 0.187,0 1.034,0l0.733 0 0 0.732c0,1.264 0,2.527 0,3.79l0 0.732 -1.756 0z"/>
   <path class="fil1" d="M13.903 4.031l1.87 3.97c0.077,0.165 0.222,0.27 0.402,0.292l4.354 0.552c0.203,0.025 0.362,0.158 0.426,0.352 0.063,0.195 0.011,0.396 -0.138,0.536l-3.198 3.005c-0.132,0.124 -0.188,0.294 -0.154,0.472l0.822 4.311c0.038,0.201 -0.038,0.394 -0.204,0.514 -0.165,0.121 -0.372,0.134 -0.552,0.035l-3.846 -2.113c-0.159,-0.088 -0.338,-0.088 -0.497,0l-3.107 1.707 0 -9.292 0.617 -0.079c0.18,-0.022 0.325,-0.127 0.402,-0.292l1.87 -3.97c0.087,-0.185 0.262,-0.296 0.467,-0.296 0.204,0 0.379,0.111 0.466,0.296z"/>
  </g>
  <rect class="fil2" width="21.471" height="21.471"/>
 </g>
</svg>
