<?xml version="1.0" encoding="UTF-8"?>
<!DOCTYPE svg PUBLIC "-//W3C//DTD SVG 1.1//EN" "http://www.w3.org/Graphics/SVG/1.1/DTD/svg11.dtd">
<!-- Creator: CorelDRAW -->
<svg xmlns="http://www.w3.org/2000/svg" xml:space="preserve" width="100px" height="100px" version="1.1" style="shape-rendering:geometricPrecision; text-rendering:geometricPrecision; image-rendering:optimizeQuality; fill-rule:evenodd; clip-rule:evenodd"
viewBox="0 0 109.564 109.564"
 xmlns:xlink="http://www.w3.org/1999/xlink"
 xmlns:xodm="http://www.corel.com/coreldraw/odm/2003">
 <defs>
  <style type="text/css">
   <![CDATA[
    .fil0 {fill:none}
    .fil1 {fill:#333333}
    .fil2 {fill:#FF4333}
   ]]>
  </style>
 </defs>
 <g id="Слой_x0020_1">
  <metadata id="CorelCorpID_0Corel-Layer"/>
  <rect class="fil0" width="109.564" height="109.564"/>
  <g id="_1642645191584">
   <path class="fil1" d="M4.66 92.9l13.172 0 12.104 -28.483 7.687 0 0 28.483c3.526,0 7.052,0 10.578,0 0,-23.589 0,-52.635 0,-76.223 -9.071,-0.006 -10.455,-0.026 -19.527,0.001 -11.007,0.032 -18.543,6.908 -20.925,17.354 -2.114,9.268 0.356,20.523 8.233,26.44l2.606 1.959 -13.928 30.469zm24.003 -39.002c-7.282,0 -11.178,-6.732 -11.263,-13.298 -0.089,-6.771 3.812,-13.4 11.206,-13.514 4.322,-0.066 0.957,-0.001 5.28,-0.001l3.737 0 0 3.738c0,6.446 0,12.891 0,19.337l0 3.738 -8.96 0z"/>
   <path class="fil2" d="M75.91 92.9c1.22,-0.767 1.546,-0.785 1.751,-2.422 0.417,-3.319 2.372,-5.78 4.286,-8.086 4.882,-5.882 12.535,-9.872 17.044,-15.992 8.56,-11.619 7.488,-26.674 -1.038,-36.703 -5.497,-6.465 -13.457,-10.477 -22.599,-10.473 -8.63,0.005 -16.211,3.649 -21.753,9.682l0 39.587c3.877,4.25 9.309,7.91 13.384,11.891 2.734,2.67 5.713,6.169 6.222,10.221 0.219,1.746 1.142,2.295 2.703,2.295zm-1.382 -54.469c-5.708,0.686 -9.989,5.395 -9.36,11.227 0.627,5.829 5.571,9.808 11.264,9.302 5.258,-0.466 9.829,-5.254 9.267,-11.177 -0.559,-5.878 -5.889,-9.987 -11.171,-9.352z"/>
  </g>
 </g>
</svg>
